<svg width="48" height="65" viewBox="0 0 48 65" fill="none" xmlns="http://www.w3.org/2000/svg">
<path d="M32.4171 6.98756C32.4171 5.1196 31.091 3.57449 29.3462 3.18245C29.0437 3.11327 28.7878 2.90572 28.6715 2.62898C28.1364 1.08388 26.6708 0 24.9492 0C23.2276 0 21.7852 1.08388 21.2269 2.60592C21.1338 2.90572 20.8779 3.09021 20.5755 3.15939C18.8074 3.55143 17.5046 5.1196 17.5046 6.98756C17.5046 8.85552 18.8307 10.4006 20.5755 10.7927C20.8779 10.8618 21.1338 11.0694 21.2502 11.3461C21.7852 12.8682 23.2509 13.9521 24.9725 13.9521C26.694 13.9521 28.1364 12.8682 28.6948 11.3461C28.7878 11.0463 29.067 10.8388 29.3695 10.7927C31.091 10.4006 32.4171 8.83246 32.4171 6.98756Z" fill="#F9C23C"/>
<path d="M30.3973 7.50001C31.114 6.90567 32.0395 6.54928 33.0454 6.54928C34.8368 6.54928 36.3723 7.67928 36.9306 9.27051C37.0469 9.59337 37.3028 9.80092 37.6285 9.8701C39.4897 10.2852 40.8623 11.8995 40.8623 13.8597C40.8623 15.8199 39.4897 17.4342 37.6285 17.8493C37.3028 17.9185 37.0469 18.1491 36.9306 18.4489C36.3723 20.0402 34.8368 21.1702 33.0454 21.1702C31.5775 21.1702 30.2814 20.4112 29.5539 19.2616C28.9207 19.695 28.1541 19.9479 27.3222 19.9479C25.6006 19.9479 24.1349 18.8641 23.5998 17.342C23.4835 17.0653 23.2276 16.8577 22.9252 16.7885C22.7095 16.74 22.5001 16.6739 22.2989 16.5917C21.7296 17.2105 20.9696 17.6577 20.1104 17.8493C19.7847 17.9185 19.5288 18.1491 19.4125 18.4489C18.8541 20.0402 17.3187 21.1702 15.5273 21.1702C13.7359 21.1702 12.2005 20.0402 11.6421 18.4489C11.5491 18.126 11.2699 17.9185 10.9442 17.8493C9.10625 17.4342 7.73364 15.8199 7.73364 13.8597C7.73364 11.8995 9.10625 10.2852 10.9442 9.8701C11.2699 9.80092 11.5491 9.59337 11.6421 9.27051C12.2238 7.67928 13.7359 6.54928 15.5506 6.54928C17.3419 6.54928 18.8774 7.67928 19.4357 9.27051C19.5521 9.59337 19.808 9.80092 20.1337 9.8701C20.4538 9.9415 20.7595 10.0484 21.0463 10.1865C21.5554 9.69442 22.1954 9.33923 22.9019 9.17831C23.2043 9.13219 23.4835 8.92464 23.5766 8.62484C24.1349 7.1028 25.5773 6.01892 27.2989 6.01892C28.5554 6.01892 29.6756 6.59631 30.3973 7.50001Z" fill="#FCD53F"/>
<path d="M31.4862 14.8054C33.0091 14.8054 34.3471 15.6221 35.0571 16.8446C35.8029 15.8033 37.0346 15.1283 38.419 15.1283C40.2104 15.1283 41.7458 16.2583 42.3042 17.8496C42.4205 18.1724 42.6764 18.38 43.0021 18.4492C44.8633 18.8643 46.2359 20.4786 46.2359 22.4388C46.2359 24.376 44.8633 26.0133 43.0021 26.4284C42.6764 26.4976 42.4205 26.7282 42.3042 27.028C41.7458 28.6193 40.2104 29.7493 38.419 29.7493C36.8961 29.7493 35.5582 28.9324 34.8484 27.7099C34.1025 28.7512 32.8709 29.4262 31.4862 29.4262C29.7674 29.4262 28.2843 28.3859 27.6736 26.8961C27.2065 27.1406 26.6865 27.2995 26.1356 27.3506C24.3675 27.5121 22.7855 26.5666 22.0644 25.1137C21.3199 26.5666 19.7612 27.5121 17.9931 27.3506C17.0257 27.2593 16.1494 26.8345 15.4886 26.1939C15.256 26.2931 15.0122 26.3719 14.7593 26.4284C14.4336 26.4976 14.1777 26.7282 14.0614 27.028C13.503 28.6193 11.9676 29.7493 10.1762 29.7493C8.38487 29.7493 6.84942 28.6193 6.29107 27.028C6.17475 26.7052 5.91884 26.4976 5.59314 26.4284C3.73198 26.0133 2.35938 24.399 2.35938 22.4388C2.35938 20.4786 3.75524 18.8413 5.59314 18.4492C5.91884 18.38 6.17475 18.1493 6.29107 17.8496C6.84942 16.2583 8.38487 15.1283 10.1762 15.1283C11.9908 15.1283 13.503 16.2583 14.0614 17.8496C14.1777 18.1724 14.4336 18.38 14.7593 18.4492C15.5366 18.6224 16.2287 19.005 16.771 19.5345C16.8741 19.4916 16.979 19.4526 17.0858 19.4176C17.5278 19.2792 17.8767 18.9333 18.0396 18.4951C18.5747 16.8348 20.1101 15.6587 21.948 15.6587C23.7627 15.6587 25.2981 16.8117 25.8565 18.426C25.8644 18.4515 25.8727 18.4767 25.882 18.5014C26.2008 18.3347 26.5435 18.2075 26.9031 18.1262C27.2288 18.0571 27.4847 17.8264 27.6011 17.5266C28.1594 15.9354 29.6949 14.8054 31.4862 14.8054Z" fill="#FFF478"/>
<path d="M18.0166 27.9733C17.877 24.7678 20.4826 22.0927 23.7164 22.0927C26.9501 22.0927 29.5325 24.7678 29.4162 27.9733L38.1403 26.728C38.3497 24.3066 40.3737 22.4386 42.8397 22.4386C45.7245 22.4386 47.9347 24.9984 47.4694 27.835L42.0488 61.8503C41.7928 63.4415 40.397 64.6177 38.7685 64.6177H35.1159L31.8417 54.8957L27.9738 64.5946H19.459L16.4667 56.9754L12.4098 64.6177H8.75736C7.12885 64.6177 5.73298 63.4415 5.47707 61.8503L0.0564544 27.835C-0.38557 24.9984 1.82455 22.4386 4.70935 22.4386C7.17538 22.4386 9.22265 24.3066 9.38546 26.728L18.0166 27.9733Z" fill="#F8312F"/>
<path d="M12.2935 64.6176L9.29247 27.0739C9.08309 24.5602 11.0838 22.4386 13.5963 22.4386C15.9228 22.4386 17.8305 24.2604 17.9235 26.5666L19.459 64.6176H12.2935Z" fill="#F4F4F4"/>
<path d="M27.9736 64.6176L29.4858 26.5666C29.5789 24.2604 31.4866 22.4386 33.813 22.4386C36.3488 22.4386 38.3496 24.5833 38.1402 27.0739L35.1391 64.6176H27.9736Z" fill="#F4F4F4"/>
</svg>
